<svg xmlns="http://www.w3.org/2000/svg" viewBox="0 0 750 500">
  <g id="Background_simple" data-name="Background simple">
    <g>
      <path d="M686.91449,62.9069c-13.50149-22.2708-42.1403-30.9775-68.1621-29.9078C546.596,35.9654,488.561,97.2038,417.14369,107.9233c-33.0542,4.9613-66.7823-1.3249-98.99429-10.2456-32.212-8.9208-63.7701-20.5126-96.6525-26.5083-32.8822-5.9957-67.9356-6.0464-98.47658,7.5343C92.4792,92.2845,67.5153,121.5749,66.0235,154.966c-1.699,38.0293,30.8391,74.31,68.82831,76.7452C383.97689,287.8604,495.129,259.826,595.59029,215.5934c28.0249-12.3393,68.8549-57.104,87.3328-81.5216C697.52709,114.7733,699.46089,83.6021,686.91449,62.9069Z" style="fill: #407bff"/>
      <g style="opacity: 0.9">
        <path d="M686.91449,62.9069c-13.50149-22.2708-42.1403-30.9775-68.1621-29.9078C546.596,35.9654,488.561,97.2038,417.14369,107.9233c-33.0542,4.9613-66.7823-1.3249-98.99429-10.2456-32.212-8.9208-63.7701-20.5126-96.6525-26.5083-32.8822-5.9957-67.9356-6.0464-98.47658,7.5343C92.4792,92.2845,67.5153,121.5749,66.0235,154.966c-1.699,38.0293,30.8391,74.31,68.82831,76.7452C383.97689,287.8604,495.129,259.826,595.59029,215.5934c28.0249-12.3393,68.8549-57.104,87.3328-81.5216C697.52709,114.7733,699.46089,83.6021,686.91449,62.9069Z" style="fill: #fff"/>
      </g>
    </g>
  </g>
  <g id="Shadow">
    <g style="opacity: 0.11">
      <ellipse cx="384.7829" cy="461.05405" rx="358.7961" ry="15.51305" style="fill: #f5f5f5"/>
    </g>
  </g>
  <g id="Container_2" data-name="Container 2">
    <g>
      <g>
        <path d="M321.4662,177.7526c0,2.37439-.07162,4.70884,1.34194,6.7728a8.182,8.182,0,0,0,6.96007,3.516H344.3129a3,3,0,0,0,0-6H330.91281c-.45073,0-.9016.00333-1.35232,0-.063-.00047-.12649-.0017-.18949,0-.03606.001-.50412-.00248-.15159.01538.36782.01863-.17382-.03825-.2679-.06228-.08166-.02085-.61459-.19261-.26968-.06127.34325.13071-.3471-.19661-.347-.19656-.0371-.01794-.38657-.26808-.12181-.06523.29944.22943-.22513-.23238-.27955-.28094-.10174-.09078-.31-.43506-.0209.00122-.09644-.14555-.17842-.29868-.27179-.44573-.29011-.45689-.05818-.14507-.01467-.00631a6.59131,6.59131,0,0,1-.17231-.6458c-.052-.25285-.00392.42775.01239-.20368.02009-.77812,0-1.55917,0-2.3376a3,3,0,1,0-6,0Z" style="fill: #407bff"/>
        <g>
          <g>
            <circle cx="324.4662" cy="166.0601" r="11.6925" style="fill: #fff"/>
            <path d="M335.7837,166.0601a11.31754,11.31754,0,1,1-9.17706-11.11653,11.45019,11.45019,0,0,1,9.17706,11.11653.37523.37523,0,0,0,.75,0,12.069,12.069,0,1,0-9.88377,11.86782,12.21957,12.21957,0,0,0,9.88377-11.86782A.37523.37523,0,0,0,335.7837,166.0601Z" style="fill: #263238"/>
          </g>
          <path d="M314.8407,166.8h5.6965a3.61833,3.61833,0,0,1,3.929-2.9821c3.572,0,3.8892,2.9821,3.8892,2.9821h5.7739s-.0844-10.9935-10.2153-10.3423C315.0311,157.0288,314.8407,166.8,314.8407,166.8Z" style="fill: #407bff"/>
          <path d="M317.74673,162.28847q2.52528,2.16137,5.0505,4.3228c.36484.31228.89775-.21585.53033-.53034q-2.5252-2.16145-5.0505-4.3228c-.36485-.31227-.89775.21586-.53033.53034Z" style="fill: #263238"/>
        </g>
      </g>
      <rect x="342.2056" y="152.7422" width="138.4153" height="179.7896" style="fill: #407bff"/>
      <path d="M411.41319,121.1553c-34.8923-.0017-69.20759,10.8541-69.20759,31.5869H480.62089S473.62429,121.1584,411.41319,121.1553Z" style="fill: #407bff"/>
      <polygon points="342.206 332.532 401.845 410.792 421.22 410.792 480.621 332.532 342.206 332.532" style="fill: #407bff"/>
      <rect x="401.73539" y="408.2087" width="19.375" height="34.4451" style="fill: #407bff"/>
      <rect x="351.1874" y="423.5826" width="119.1879" height="7.5311" style="fill: #407bff"/>
      <rect x="461.95689" y="332.5318" width="18.664" height="117.5733" style="fill: #407bff"/>
      <rect x="342.1142" y="332.5318" width="18.664" height="117.5733" style="fill: #407bff"/>
      <polygon points="396.091 128.041 360.324 143.495 349.487 118.413 385.987 104.655 396.091 128.041" style="fill: #407bff"/>
      <path d="M386.12179,115.6172H478.821c.94482,0,1.88967-.00207,2.83449,0a11.46219,11.46219,0,0,1,6.38087,1.73183c4.0362,2.48236,5.91226,6.89387,5.91226,11.72808V312.8256c0,3.86071,6,3.86711,6,0V130.78718a33.16569,33.16569,0,0,0-.41063-6.44387,18.31723,18.31723,0,0,0-17.80164-14.72611c-8.04733-.02328-16.09507,0-24.14243,0h-71.4721c-3.86071,0-3.8671,6,0,6Z" style="fill: #407bff"/>
      <path d="M480.76409,277.0134h16.1845a3,3,0,0,0,0-6h-16.1845a3,3,0,0,0,0,6Z" style="fill: #407bff"/>
      <path d="M480.46439,186.5h14.3862a3,3,0,0,0,0-6h-14.3862a3,3,0,0,0,0,6Z" style="fill: #407bff"/>
      <path d="M355.34748,134.3348a373.40432,373.40432,0,0,1,38.1483-12.5361.37532.37532,0,0,0-.19938-.7232,373.39841,373.39841,0,0,0-38.14829,12.5361c-.4449.17321-.2514.89872.19937.7232Z" style="fill: #263238"/>
      <path d="M402.00979,411.5005h18.8069a.37522.37522,0,0,0,0-.75h-18.8069a.37522.37522,0,0,0,0,.75Z" style="fill: #263238"/>
      <path d="M480.40439,153.3169H342.2459a.37522.37522,0,0,0,0,.75H480.40439a.37522.37522,0,0,0,0-.75Z" style="fill: #263238"/>
      <path d="M480.40439,158.4395H342.2459a.37522.37522,0,0,0,0,.75H480.40439a.37522.37522,0,0,0,0-.75Z" style="fill: #263238"/>
      <path d="M341.83939,332.52517l10.10767,13.311,16.03759,21.1203,3.71674,4.89467c.28815.37947.93976.0062.64761-.37854l-10.10767-13.311-16.03759-21.1203-3.71674-4.89467c-.28815-.37947-.93976-.0062-.64761.37854Z" style="fill: #263238"/>
      <path d="M454.15359,368.39267q12.69615-17.89515,25.3923-35.7903c.27982-.3944-.37028-.76943-.6476-.37854q-12.69614,17.89515-25.3923,35.7903c-.27981.3944.37028.76943.6476.37854Z" style="fill: #263238"/>
      <path d="M351.4462,161.7217c.1589,2.7582,0,161.4654,0,161.4654l22.8758,27.1212V161.7217Z" style="fill: #fff;opacity: 0.2"/>
      <path d="M353.3328,149.5245H374.322s15.08539-21.7691,31.25679-24.4643C405.57879,125.0602,364.46009,124.6455,353.3328,149.5245Z" style="fill: #fff;opacity: 0.2"/>
      <path d="M349.4874,118.4131s-.6191-5.9179,14.20209-12.2518c16.7994-7.1792,22.2974-1.5066,22.2974-1.5066Z" style="fill: #407bff"/>
      <path d="M349.54186,118.96a207.98253,207.98253,0,0,1,35.355-13.7705.37532.37532,0,0,0-.19938-.7232,209.067,209.067,0,0,0-35.53417,13.8461c-.43193.21552-.05251.86268.37853.6476Z" style="fill: #263238"/>
      <path d="M364.74889,103.085a.28226.28226,0,0,0-.4406-.223q-1.43655.52065-2.8736,1.0412a12.31026,12.31026,0,0,0,1.4858,3.1173l3.0941-.1817Q365.38144,104.96185,364.74889,103.085Z" style="fill: #407bff"/>
      <rect x="360.77819" y="423.5826" width="3.70981" height="7.5311" style="opacity: 0.30000000000000004"/>
      <rect x="458.27519" y="423.5826" width="3.70981" height="7.5311" style="opacity: 0.30000000000000004"/>
      <g style="opacity: 0.30000000000000004">
        <path d="M480.97029,110.5822v4.0913a.37522.37522,0,0,0,.75,0v-4.0913a.37522.37522,0,0,0-.75,0Z"/>
      </g>
      <g style="opacity: 0.30000000000000004">
        <path d="M494.64029,128.2838h4.586a.37522.37522,0,0,0,0-.75h-4.586a.37522.37522,0,0,0,0,.75Z"/>
      </g>
      <g style="opacity: 0.30000000000000004">
        <path d="M493.25649,181.1282v5.2214a.37522.37522,0,0,0,.75,0v-5.2214a.37522.37522,0,0,0-.75,0Z"/>
      </g>
      <g style="opacity: 0.30000000000000004">
        <path d="M493.24569,271.6557v4.9845a.37522.37522,0,0,0,.75,0v-4.9845a.37522.37522,0,0,0-.75,0Z"/>
      </g>
      <g style="opacity: 0.30000000000000004">
        <path d="M388.70569,110.68389q.85332,2.033,1.70671,4.066a.38762.38762,0,0,0,.46129.26191.3773.3773,0,0,0,.26191-.46129q-.85336-2.033-1.7067-4.066a.38763.38763,0,0,0-.4613-.26191.3773.3773,0,0,0-.26191.46129Z"/>
      </g>
      <rect x="405.57879" y="218.1994" width="15.9369" height="106.9127" style="fill: #fff;opacity: 0.4"/>
      <path d="M421.51569,324.7371h-15.9369l.375.375V219.8345a4.75119,4.75119,0,0,0,0-1.451.59608.59608,0,0,1,0-.18413l-.375.375h15.9369l-.375-.375V320.76112a27.59375,27.59375,0,0,0,0,4.16685,1.21691,1.21691,0,0,1,0,.18413.37522.37522,0,0,0,.75,0V222.55038a30.00787,30.00787,0,0,0,0-4.16685,1.32492,1.32492,0,0,1,0-.18413.38045.38045,0,0,0-.375-.375h-15.9369a.38045.38045,0,0,0-.375.375V320.76112a30.00942,30.00942,0,0,0,0,4.16685,1.32337,1.32337,0,0,1,0,.18413.38045.38045,0,0,0,.375.375h15.9369A.37522.37522,0,0,0,421.51569,324.7371Z" style="fill: #263238"/>
      <rect x="408.735" y="239.3511" width="9.71569" height="82.1618" style="fill: #407bff"/>
    </g>
  </g>
  <g id="Container_1" data-name="Container 1">
    <g>
      <path d="M139.832,446.954V202.96864c0-1.05855-.00752-2.11741,0-3.17594a20.01238,20.01238,0,0,1,18.68647-19.80142c3.34314-.16552,6.72136-.02738,10.06643-.02738H232.922c3.86071,0,3.86711-6,0-6H161.52639a40.66076,40.66076,0,0,0-4.48879.14756,26.09405,26.09405,0,0,0-15.64492,7.41752,26.40789,26.40789,0,0,0-7.56068,18.84981V446.954c0,3.86071,6,3.86711,6,0Z" style="fill: #407bff"/>
      <g style="opacity: 0.4">
        <path d="M139.832,446.954V202.96864c0-1.05855-.00752-2.11741,0-3.17594a20.01238,20.01238,0,0,1,18.68647-19.80142c3.34314-.16552,6.72136-.02738,10.06643-.02738H232.922c3.86071,0,3.86711-6,0-6H161.52639a40.66076,40.66076,0,0,0-4.48879.14756,26.09405,26.09405,0,0,0-15.64492,7.41752,26.40789,26.40789,0,0,0-7.56068,18.84981V446.954c0,3.86071,6,3.86711,6,0Z" style="fill: #fff"/>
      </g>
      <rect x="157.75547" y="343.0362" width="13.25403" height="107.6864" style="fill: #407bff"/>
      <rect x="157.75547" y="343.0362" width="13.25403" height="107.6864" style="fill: #fff;opacity: 0.4"/>
      <polygon points="157.755 207.374 227.968 171.559 227.968 162.339 245.698 162.339 245.698 171.204 324.067 207.374 157.755 207.374" style="fill: #407bff"/>
      <path d="M157.75547,343.0362V207.3744H324.0668V343.0362s-11.082,54.2378-83.1557,54.2378C168.8375,397.274,157.75547,343.0362,157.75547,343.0362Z" style="fill: #407bff"/>
      <path d="M157.75547,343.0362V207.3744H324.0668V343.0362s-11.082,54.2378-83.1557,54.2378C168.8375,397.274,157.75547,343.0362,157.75547,343.0362Z" style="fill: #fff;opacity: 0.4"/>
      <rect x="310.8127" y="343.0362" width="13.2541" height="107.6864" style="fill: #407bff"/>
      <rect x="310.8127" y="343.0362" width="13.2541" height="107.6864" style="fill: #fff;opacity: 0.4"/>
      <rect x="171.0095" y="410.015" width="143.8999" height="9.1056" style="fill: #407bff"/>
      <polygon points="157.755 207.374 227.968 171.559 227.968 162.339 245.698 162.339 245.698 171.204 324.067 207.374 157.755 207.374" style="fill: #fff;opacity: 0.4"/>
      <rect x="171.0095" y="410.015" width="143.8999" height="9.1056" style="fill: #fff;opacity: 0.4"/>
      <path d="M228.2104,171.5744h17.3247a.37522.37522,0,0,0,0-.75H228.2104a.37522.37522,0,0,0,0,.75Z" style="fill: #263238"/>
      <polygon points="212 179.704 222.543 174.326 218.851 174.326 208.336 179.704 212 179.704" style="opacity: 0.30000000000000004"/>
      <path d="M171.3326,410.4441v9.7969a.37522.37522,0,0,0,.75,0v-9.7969a.37522.37522,0,0,0-.75,0Z" style="fill: #263238"/>
      <path d="M310.4377,410.4441v9.7969a.37522.37522,0,0,0,.75,0v-9.7969a.37522.37522,0,0,0-.75,0Z" style="fill: #263238"/>
      <g>
        <path d="M158.69187,207.0081H323.0993a.37522.37522,0,0,0,0-.75H158.69187a.37522.37522,0,0,0,0,.75Z" style="fill: #263238"/>
        <path d="M158.69187,215.0421H323.0993a.37522.37522,0,0,0,0-.75H158.69187a.37522.37522,0,0,0,0,.75Z" style="fill: #263238"/>
        <path d="M168.1015,211.2927a.37522.37522,0,0,0,0-.75.37522.37522,0,0,0,0,.75Z" style="fill: #263238"/>
        <path d="M184.877,211.2927a.37522.37522,0,0,0,0-.75.37522.37522,0,0,0,0,.75Z" style="fill: #263238"/>
        <path d="M201.6525,211.2927a.37522.37522,0,0,0,0-.75.37522.37522,0,0,0,0,.75Z" style="fill: #263238"/>
        <path d="M218.428,211.2927a.37522.37522,0,0,0,0-.75.37522.37522,0,0,0,0,.75Z" style="fill: #263238"/>
        <path d="M235.2036,211.2927a.37522.37522,0,0,0,0-.75.37522.37522,0,0,0,0,.75Z" style="fill: #263238"/>
        <path d="M251.9791,211.2927a.37522.37522,0,0,0,0-.75.37522.37522,0,0,0,0,.75Z" style="fill: #263238"/>
        <path d="M268.7546,211.2927a.37522.37522,0,0,0,0-.75.37522.37522,0,0,0,0,.75Z" style="fill: #263238"/>
        <path d="M285.5301,211.2927a.37522.37522,0,0,0,0-.75.37522.37522,0,0,0,0,.75Z" style="fill: #263238"/>
        <path d="M302.3056,211.2927a.37522.37522,0,0,0,0-.75.37522.37522,0,0,0,0,.75Z" style="fill: #263238"/>
        <path d="M319.0812,211.2927a.37522.37522,0,0,0,0-.75.37522.37522,0,0,0,0,.75Z" style="fill: #263238"/>
      </g>
      <path d="M175.5546,223.0331V360.6715a49.06405,49.06405,0,0,0,26.0979,21.9395V223.0331Z" style="fill: #fff;opacity: 0.4"/>
      <polygon points="178.323 202.268 201.653 202.268 230.329 171.793 178.323 202.268" style="fill: #fff;opacity: 0.4"/>
      <g style="opacity: 0.30000000000000004">
        <path d="M134.4777,202.5818h4.4984a.37522.37522,0,0,0,0-.75h-4.4984a.37522.37522,0,0,0,0,.75Z"/>
      </g>
      <g style="opacity: 0.30000000000000004">
        <path d="M155.74378,174.9731v4.8632a.37522.37522,0,0,0,.75,0v-4.8632a.37522.37522,0,0,0-.75,0Z"/>
      </g>
      <g>
        <g>
          <circle cx="240.9111" cy="361.226" r="11.6925" style="fill: #fff"/>
          <path d="M252.2286,361.226a11.31754,11.31754,0,1,1-9.17706-11.11653A11.4502,11.4502,0,0,1,252.2286,361.226a.37523.37523,0,0,0,.75,0,12.06893,12.06893,0,1,0-9.88376,11.86782A12.2195,12.2195,0,0,0,252.9786,361.226.37523.37523,0,0,0,252.2286,361.226Z" style="fill: #263238"/>
        </g>
        <path d="M231.2857,361.9658h5.6964a3.61833,3.61833,0,0,1,3.929-2.9821c3.572,0,3.8893,2.9821,3.8893,2.9821h5.7739s-.0844-10.9935-10.2154-10.3422C231.4761,352.1947,231.2857,361.9658,231.2857,361.9658Z" style="fill: #407bff"/>
        <path d="M234.19173,357.45427q2.52528,2.16136,5.0505,4.3228c.36485.31227.89776-.21586.53034-.53034q-2.52528-2.16137-5.0505-4.3228c-.36485-.31227-.89776.21586-.53034.53034Z" style="fill: #263238"/>
      </g>
    </g>
  </g>
  <g id="Barrel">
    <g>
      <g>
        <path d="M402.57739,346.0938V459.1051h69.6912V346.0938Zm47.0643,8.767a4.44321,4.44321,0,0,1-4.4432,4.4432h-15.551a4.44321,4.44321,0,0,1-4.4432-4.4432h0a4.44313,4.44313,0,0,1,4.4432-4.4431h15.551a4.44313,4.44313,0,0,1,4.4432,4.4431Z" style="fill: #263238"/>
        <path d="M402.57739,346.0938V459.1051h69.6912V346.0938Zm47.0643,8.767a4.44321,4.44321,0,0,1-4.4432,4.4432h-15.551a4.44321,4.44321,0,0,1-4.4432-4.4432h0a4.44313,4.44313,0,0,1,4.4432-4.4431h15.551a4.44313,4.44313,0,0,1,4.4432,4.4431Z" style="fill: #fff;opacity: 0.4"/>
        <path d="M402.97669,372.8354h68.8927a3.5954,3.5954,0,0,1,3.5954,3.5954v.6857a3.5955,3.5955,0,0,1-3.5955,3.5955h-68.8926a3.5955,3.5955,0,0,1-3.5955-3.5955v-.6856A3.5955,3.5955,0,0,1,402.97669,372.8354Z" style="fill: #263238"/>
        <path d="M402.97669,372.8354h68.8927a3.5954,3.5954,0,0,1,3.5954,3.5954v.6857a3.5955,3.5955,0,0,1-3.5955,3.5955h-68.8926a3.5955,3.5955,0,0,1-3.5955-3.5955v-.6856A3.5955,3.5955,0,0,1,402.97669,372.8354Z" style="fill: #fff;opacity: 0.5"/>
        <path d="M402.97659,404.7235h68.8928a3.5954,3.5954,0,0,1,3.5954,3.5954v.6856a3.5955,3.5955,0,0,1-3.5955,3.5955h-68.8926a3.5955,3.5955,0,0,1-3.5955-3.5955v-.6856A3.5954,3.5954,0,0,1,402.97659,404.7235Z" style="fill: #263238"/>
        <path d="M402.97659,404.7235h68.8928a3.5954,3.5954,0,0,1,3.5954,3.5954v.6856a3.5955,3.5955,0,0,1-3.5955,3.5955h-68.8926a3.5955,3.5955,0,0,1-3.5955-3.5955v-.6856A3.5954,3.5954,0,0,1,402.97659,404.7235Z" style="fill: #fff;opacity: 0.5"/>
        <path d="M402.97669,436.6116h68.8927a3.5954,3.5954,0,0,1,3.5954,3.5954v.6856a3.5955,3.5955,0,0,1-3.5955,3.5955h-68.8926a3.5955,3.5955,0,0,1-3.5955-3.5955v-.6855A3.5955,3.5955,0,0,1,402.97669,436.6116Z" style="fill: #263238"/>
        <path d="M402.97669,436.6116h68.8927a3.5954,3.5954,0,0,1,3.5954,3.5954v.6856a3.5955,3.5955,0,0,1-3.5955,3.5955h-68.8926a3.5955,3.5955,0,0,1-3.5955-3.5955v-.6855A3.5955,3.5955,0,0,1,402.97669,436.6116Z" style="fill: #fff;opacity: 0.5"/>
      </g>
      <g style="opacity: 0.2">
        <path d="M403.49139,381.9918h67.8632a.37522.37522,0,0,0,0-.75h-67.8632a.37522.37522,0,0,0,0,.75Z"/>
      </g>
      <g style="opacity: 0.2">
        <path d="M403.49139,413.8804h67.8632a.37522.37522,0,0,0,0-.75h-67.8632a.37522.37522,0,0,0,0,.75Z"/>
      </g>
      <g style="opacity: 0.2">
        <path d="M403.49139,445.8331h67.8632a.37522.37522,0,0,0,0-.75h-67.8632a.37522.37522,0,0,0,0,.75Z"/>
      </g>
      <g style="opacity: 0.2">
        <path d="M404.29119,353.9586v16.4128a.37522.37522,0,0,0,.75,0V353.9586a.37522.37522,0,0,0-.75,0Z" style="fill: #fff"/>
      </g>
      <g style="opacity: 0.2">
        <path d="M403.4196,374.2834a3.04979,3.04979,0,0,0-1.87681,4.19047.37733.37733,0,0,0,.51307.13453.38485.38485,0,0,0,.13453-.51307,2.32922,2.32922,0,0,1,1.42859-3.08873c.45751-.14753.26184-.87193-.19938-.7232Z" style="fill: #fff"/>
      </g>
      <g style="opacity: 0.2">
        <path d="M403.56369,397.1021v4.2395a.37522.37522,0,0,0,.75,0v-4.2395a.37522.37522,0,0,0-.75,0Z" style="fill: #fff"/>
      </g>
      <g style="opacity: 0.2">
        <path d="M401.98193,406.41583a4.10439,4.10439,0,0,0-1.18864,2.99037.375.375,0,0,0,.75,0,3.34177,3.34177,0,0,1,.969-2.46.375.375,0,0,0-.53033-.53034Z" style="fill: #fff"/>
      </g>
      <g style="opacity: 0.2">
        <path d="M402.90958,438.5901a2.194,2.194,0,0,0-2.55749,3.14007.37506.37506,0,1,0,.6476-.37854,1.45417,1.45417,0,0,1-.14065-.84333q.00448-.04035-.00119.00347.00588-.03836.01332-.07643.01114-.05707.02576-.11343a1.73069,1.73069,0,0,1,.07214-.2208c-.021.05125.02815-.057.03427-.06886q.02654-.05165.0564-.10141c.02328-.03878.04826-.07628.07414-.11336.03963-.05678-.0134.00915.03676-.04556a2.187,2.187,0,0,1,.16038-.16217c.00359-.00318.08929-.07311.04212-.03706.03519-.0269.0723-.05151.10968-.07523a1.2979,1.2979,0,0,1,.37646-.17533,1.96661,1.96661,0,0,1,.241-.05623q.04029-.00636-.00545,0,.03782-.00437.07577-.00717.05688-.00422.114-.00494a1.72176,1.72176,0,0,1,.22758.01155c-.069-.00842.03688.0078.05041.01058.04982.01023.0988.02319.14763.03733a.37509.37509,0,1,0,.19938-.7232Z" style="fill: #fff"/>
      </g>
    </g>
  </g>
  <g id="Bottles">
    <g>
      <path d="M158.35267,414.7084c-4.003.05659-5.911-4.743-6.83023-7.92956a49.45853,49.45853,0,0,1-1.67094-13.0079,95.42775,95.42775,0,0,1,.5465-12.67493,28.36529,28.36529,0,0,1,3.57775-11.59766c1.9649-3.17435,5.13667-6.08871,9.08985-5.93725,1.93071.074,1.92753-2.92615,0-3-9.24672-.35428-13.97426,10.10478-15.27,17.72543a84.85538,84.85538,0,0,0-.952,14.78787A52.81382,52.81382,0,0,0,148.748,407.978c1.34465,4.44408,4.26441,9.80591,9.60467,9.73042a1.5009,1.5009,0,0,0,0-3Z" style="fill: #263238"/>
      <path d="M177.6727,450.1051H155.63138V378.5712A11.02065,11.02065,0,0,1,166.652,367.5505h0a11.02065,11.02065,0,0,1,11.0207,11.0207Z" style="fill: #263238"/>
      <path d="M177.6727,450.1051H155.63138V378.5712A11.02065,11.02065,0,0,1,166.652,367.5505h0a11.02065,11.02065,0,0,1,11.0207,11.0207Z" style="fill: #fff;opacity: 0.4"/>
      <rect x="162.8696" y="364.6128" width="7.5648" height="5.4817" style="fill: #263238"/>
      <rect x="162.8696" y="364.6128" width="7.5648" height="5.4817" style="fill: #fff;opacity: 0.4"/>
      <rect x="158.44248" y="355.6583" width="16.41912" height="10.4894" style="fill: #263238"/>
      <g style="opacity: 0.4">
        <path d="M162.91263,369.6412a12.08905,12.08905,0,0,0-5.624,10.024.37523.37523,0,0,0,.75,0,11.314,11.314,0,0,1,5.25258-9.3764c.40838-.25527.03233-.90442-.37854-.6476Z" style="fill: #fff"/>
      </g>
      <g style="opacity: 0.4">
        <path d="M157.15173,382.8007v20.3276a.37522.37522,0,0,0,.75,0V382.8007a.37522.37522,0,0,0-.75,0Z" style="fill: #fff"/>
      </g>
    </g>
    <g>
      <path d="M182.2796,414.7084c-4.003.05659-5.911-4.743-6.83018-7.92956a49.4594,49.4594,0,0,1-1.671-13.0079A95.42607,95.42607,0,0,1,174.325,381.096a28.36577,28.36577,0,0,1,3.57774-11.59766c1.9649-3.17439,5.1367-6.08871,9.0899-5.93725,1.93071.074,1.92753-2.92615,0-3-9.24676-.35428-13.97428,10.10473-15.27,17.72543a84.85442,84.85442,0,0,0-.95206,14.78787A52.81646,52.81646,0,0,0,172.675,407.978c1.34457,4.4441,4.26442,9.80591,9.60464,9.73042a1.5009,1.5009,0,0,0,0-3Z" style="fill: #263238"/>
      <path d="M190.57888,367.5505h0a11.0207,11.0207,0,0,1,11.0207,11.0207v71.5339a0,0,0,0,1,0,0H179.5583a0,0,0,0,1,0,0v-71.534A11.02058,11.02058,0,0,1,190.57888,367.5505Z" style="fill: #263238"/>
      <path d="M190.57888,367.5505h0a11.0207,11.0207,0,0,1,11.0207,11.0207v71.5339a0,0,0,0,1,0,0H179.5583a0,0,0,0,1,0,0v-71.534A11.02058,11.02058,0,0,1,190.57888,367.5505Z" style="fill: #fff;opacity: 0.4"/>
      <rect x="186.7965" y="364.6128" width="7.5648" height="5.4817" style="fill: #263238"/>
      <rect x="186.7965" y="364.6128" width="7.5648" height="5.4817" style="fill: #fff;opacity: 0.4"/>
      <rect x="182.3694" y="355.6583" width="16.4191" height="10.4894" style="fill: #263238"/>
      <g style="opacity: 0.4">
        <path d="M186.83953,369.6412a12.08912,12.08912,0,0,0-5.624,10.024.37523.37523,0,0,0,.75,0,11.314,11.314,0,0,1,5.25257-9.3764c.40838-.25527.03233-.90443-.37854-.6476Z" style="fill: #fff"/>
      </g>
      <g style="opacity: 0.4">
        <path d="M181.0787,382.8007v20.3276a.37522.37522,0,0,0,.75,0V382.8007a.37522.37522,0,0,0-.75,0Z" style="fill: #fff"/>
      </g>
    </g>
  </g>
  <g id="Sack">
    <g>
      <path d="M91.6899,451.4436c16.4976,2.2335,33.3509,4.4595,49.69064,1.27,2.67372-.5219,5.8146-1.6785,6.31537-4.3563.3304-1.7667-.672-3.4681-1.42168-5.1017-5.39133-11.7481,1.50215-26.3435-3.65484-38.1964,4.477-3.2963,5.83363-9.8507,3.83711-15.0395-1.99652-5.1887-6.8201-8.9603-12.1259-10.621s-11.0464-1.4186-16.5022-.3495c-5.4559,1.069-10.7175,2.9348-16.0497,4.5087-4.568,1.3483-9.2202,2.4927-13.5724,4.4273-4.3523,1.9347-8.4559,4.7506-11.0398,8.7516-2.584,4.001-3.4235,9.3201-1.337,13.6016a13.43859,13.43859,0,0,0,3.0617,3.6337c-.4367,3.654-.6495,10.3782,1.2545,14.0539a75.88794,75.88794,0,0,0-8.6033,19.0157C76.4475,448.9008,83.4296,450.3106,91.6899,451.4436Z" style="fill: #b97964"/>
      <path d="M90.5932,397.4674c.7326.0633,6.8044-5.8165,11.8536-8.1849a27.5841,27.5841,0,0,1,16.2678-2.5793,18.87454,18.87454,0,0,1,13.3614,9.1088,31.73834,31.73834,0,0,0-19.6357,7.3667c-1.1763.9886-2.4344,2.1268-3.971,2.1372-1.7539.0118-3.1329-1.4423-4.7579-2.1024-3.5481-1.4413-7.8767,1.0234-11.3183-.6564a23.14749,23.14749,0,0,1-3.0855-2.2694,3.93389,3.93389,0,0,0-3.5888-.8062S88.497,397.2863,90.5932,397.4674Z" style="fill: #407bff"/>
      <g style="opacity: 0.30000000000000004">
        <path d="M86.86061,429.4433c14.12712,4.97574,29.94516,10.2031,44.52756,3.8305.44121-.19281.05986-.83919-.37854-.6476-14.36185,6.27622-30.05572.98749-43.94964-3.9061-.45614-.16066-.65232.56367-.19938.7232Z"/>
      </g>
      <g style="opacity: 0.30000000000000004">
        <path d="M125.55527,441.2426q7.66494-4.22682,15.3298-8.4538c.42276-.23313.04483-.88107-.37854-.6476q-7.66491,4.22688-15.3298,8.4538c-.42276.23313-.04483.88107.37854.6476Z"/>
      </g>
      <path d="M83.45357,399.9784c3.54091-1.84811,6.68119,2.407,9.92,3.162,1.8172.42357,3.68313-.143,5.51751-.149a16.10083,16.10083,0,0,1,5.94881,1.11113c1.42934.56485,2.93317,1.74942,4.54413,1.66792,1.42637-.07217,2.3579-1.21609,3.29324-2.14809a25.077,25.077,0,0,1,8.88975-5.68129,25.57359,25.57359,0,0,1,11.7-1.47778.37088.37088,0,0,0,.3238-.18573,16.37809,16.37809,0,0,1,5.73607-5.50167.37528.37528,0,0,0-.37854-.6476,16.99455,16.99455,0,0,0-4.4463,3.64092c-.441.5137-1.00718,1.69034-1.62668,1.90216a4.84665,4.84665,0,0,1-1.37422-.09531q-.8845-.03668-1.76991-.01037a26.419,26.419,0,0,0-10.979,2.7899,25.88192,25.88192,0,0,0-4.85563,3.152c-1.74273,1.43156-3.35521,4.20861-5.91306,3.22133-2.08326-.80409-3.88655-1.84746-6.13317-2.23509a26.525,26.525,0,0,0-6.39155.033c-2.74532.17462-4.54107-1.48408-6.80405-2.70576-1.74067-.93971-3.74612-1.44727-5.5797-.49027-.428.22341-.04929.8709.37854.6476Z" style="fill: #263238"/>
      <g style="opacity: 0.30000000000000004">
        <path d="M78.35481,413.8938c9.85,2.84222,20.12183,4.59972,30.40071,3.98452a54.01909,54.01909,0,0,0,20.457-5.55211c4.58727-2.20183,9.06433-4.631,13.59616-6.94321.43-.21942.051-.86674-.37854-.6476-7.0166,3.58-13.9535,7.74129-21.4751,10.195-8.083,2.63686-16.86547,2.75828-25.24559,1.79845a105.13952,105.13952,0,0,1-17.15524-3.55824.37532.37532,0,0,0-.19938.7232Z"/>
      </g>
    </g>
  </g>
  <g id="Speech_Bubble" data-name="Speech Bubble">
    <g>
      <g>
        <path d="M537.35615,126.55947a17.26214,17.26214,0,1,0-1.2039,28.4025l4.9804,1.4403-.54028-5.4513c.05908-.0759.12528-.1428.18348-.2199A17.2622,17.2622,0,0,0,537.35615,126.55947Z" style="fill: #407bff"/>
        <path d="M507.17585,138.54127a17.111,17.111,0,0,1,7.0423-14.5237" style="fill: none;stroke: #407bff;stroke-linecap: round;stroke-linejoin: round"/>
        <path d="M516.36865,122.60037a6.24476,6.24476,0,0,1,2.25472-1.1909" style="fill: none;stroke: #407bff;stroke-linecap: round;stroke-linejoin: round"/>
      </g>
      <polygon points="526.168 149.063 517.393 142.529 519.673 139.467 525.557 143.849 533.642 134.204 536.567 136.656 526.168 149.063" style="fill: #fff"/>
    </g>
  </g>
  <g id="Character">
    <g>
      <g>
        <path d="M508.37037,211.459a14.41968,14.41968,0,0,1-2.83272-3.5163c-.5826-1.4337-1.467-9.1299-2.3568-11.5982-.8429-2.3384-1.29648-2.3394-2.8201-1.5509-1.5235.7886-1.18438,9.2464-.8442,13.1491.3403,3.9027,5.1706,9.7889,5.1706,9.7889Z" style="fill: #ffad4e"/>
        <path d="M549.21655,197.92527c-6.8369,7.1517-13.8034,26.6061-14.40018,27.0378-2.19772,1.5898-25.58092-16.6158-25.58092-16.6158l-5.7527,9.3843s11.2081,9.6624,20.5887,18.6224c9.6794,9.2449,15.6201,9.1136,20.7348,1.7566,4.68712-6.7418,15.4783-30.095,15.4783-30.095Z" style="fill: #407bff"/>
        <g style="opacity: 0.4">
          <path d="M549.21655,197.92527c-6.8369,7.1517-13.8034,26.6061-14.40018,27.0378-2.19772,1.5898-25.58092-16.6158-25.58092-16.6158l-5.7527,9.3843s11.2081,9.6624,20.5887,18.6224c9.6794,9.2449,15.6201,9.1136,20.7348,1.7566,4.68712-6.7418,15.4783-30.095,15.4783-30.095Z" style="fill: #fff"/>
        </g>
        <path d="M589.48115,195.96217c-.95978-1.1627-13.0594-4.0772-13.0594-4.0772l-11.8101.6458s-4.5389,1.0127-8.4249,2.2801c-5.18838,1.6917-7.9939,3.0526-9.2307,5.9313,0,0-2.16468,6.378-.863,19.5215.3577,3.6142,1.1757,22.688.1669,28.8953l-6.3303,15.75c21.57872,16.8049,49.4114-1.923,49.4114-1.923-.9699-2.9673-4.5795-15.7183-5.0182-18.6181Z" style="fill: #407bff"/>
        <path d="M589.48115,195.96217c-.95978-1.1627-13.0594-4.0772-13.0594-4.0772l-11.8101.6458s-4.5389,1.0127-8.4249,2.2801c-5.18838,1.6917-7.9939,3.0526-9.2307,5.9313,0,0-2.16468,6.378-.863,19.5215.3577,3.6142,1.1757,22.688.1669,28.8953l-6.3303,15.75c21.57872,16.8049,49.4114-1.923,49.4114-1.923-.9699-2.9673-4.5795-15.7183-5.0182-18.6181Z" style="fill: #fff;opacity: 0.4"/>
        <path d="M547.71225,204.96427c.77282,7.17187,2.01834,14.2891,2.7909,21.461.05115.47484.80172.48007.75,0-.77256-7.1719-2.01808-14.28913-2.7909-21.461-.05116-.47484-.80173-.48006-.75,0Z" style="fill: #263238"/>
      </g>
      <path d="M584.76479,254.78683a23.48605,23.48605,0,0,0,8.36759,5.7626,20.40274,20.40274,0,0,0,4.78841,1.34342c1.16649.16169,2.63043.09505,3.25579-1.08655,1.53547-2.90122-3.32114-5.19381-5.25389-6.04668a20.7825,20.7825,0,0,0-10.477-1.65755l.18927.6988c4.2977-1.85113,10.73829-4.56732,11.38888-9.94344a3.64685,3.64685,0,0,0-3.40858-4.28175c-2.59212-.15969-4.49276,1.802-5.75424,3.83974a32.45494,32.45494,0,0,0-3.93413,9.82616c-.10748.46986.61546.67045.72321.19938a32.60539,32.60539,0,0,1,3.60906-9.23309,8.52064,8.52064,0,0,1,3.05652-3.3699,3.59891,3.59891,0,0,1,4.27435.37356c2.28075,2.47623-.76786,6.16914-2.67894,7.75149a30.85334,30.85334,0,0,1-7.65467,4.19025.37759.37759,0,0,0,.18927.6988,20.18326,20.18326,0,0,1,8.55309.95587,19.56362,19.56362,0,0,1,4.02678,1.9084,9.68032,9.68032,0,0,1,1.85319,1.37765c.70091.71925,1.262,2.08581.2161,2.82127-1.09926.773-3.06314.08475-4.22562-.23219a22.23,22.23,0,0,1-3.97618-1.50393,22.80687,22.80687,0,0,1-6.59789-4.92264c-.33-.35368-.85946.17754-.53033.53033Z" style="fill: #263238"/>
      <g>
        <path d="M575.90825,158.47647c4.5808,1.6954,15.9835,20.8319,8.7314,28.1227-7.2518,7.2908-31.4872,4.3833-34.988-3.2998a13.09922,13.09922,0,0,1,1.5769-13.569s-5.2447-17.4417,4.0353-21.0124c9.2799-3.5707,16.6293,2.5718,16.6293,2.5718S571.32745,156.78087,575.90825,158.47647Z" style="fill: #263238"/>
        <path d="M573.55037,177.23087,568.264,178.487l-.0034.0035-5.046,2.5188-.0068.2388,1.2701,7.5382c.2459,2.2489-2.0608,4.1118-3.54248,4.6471-.83022.7034-.80142,6.8148,3.60718,11.8773,1.42482,1.6362,3.5739-1.1938,5.2055-2.7436,6.6885-7.0414,7.3345-10.5148,7.3345-10.5148C574.38805,189.80307,573.54675,182.24637,573.55037,177.23087Z" style="fill: #ffad4e"/>
        <path d="M564.41375,188.40577s7.88162-3.7862,6.9247-7.9321l-7.375,5.2594Z" style="isolation: isolate;opacity: 0.2"/>
        <path d="M577.61025,166.03057c-1.6974,8.7953-2.21988,12.5387-7.2043,16.6976-7.50258,6.2432-17.6908,2.7258-18.6385-6.302-.7896-8.1185,2.0707-21.1181,11.0334-23.911C571.764,149.72227,579.30237,157.22387,577.61025,166.03057Z" style="fill: #ffad4e"/>
        <path d="M567.68705,164.90717a.39231.39231,0,0,1-.3091-.1232,3.18459,3.18459,0,0,0-2.8748-1.0191.3958.3958,0,0,1-.4895-.3326.49159.49159,0,0,1,.3735-.5313,3.9766,3.9766,0,0,1,3.65,1.2451.45278.45278,0,0,1-.0452.6263A.47258.47258,0,0,1,567.68705,164.90717Z" style="fill: #263238"/>
        <path d="M554.14915,162.78577a.32622.32622,0,0,1-.1877-.2094.49226.49226,0,0,1,.2706-.5616,3.68014,3.68014,0,0,1,3.6406.001.40622.40622,0,0,1,.0483.5756.42387.42387,0,0,1-.5688.1453,2.95052,2.95052,0,0,0-2.8871.033A.38734.38734,0,0,1,554.14915,162.78577Z" style="fill: #263238"/>
        <path d="M559.16565,167.20347a31.30516,31.30516,0,0,1-3.4378,5.255.6888.6888,0,0,0,.234,1.0797,4.4145,4.4145,0,0,0,2.3916.1964Z" style="fill: #ff7f00"/>
        <path d="M563.63875,167.17307c.0133-.0121.0261-.014.0394-.0269l-2.0096-.6213a2.37977,2.37977,0,0,0,1.0003.8768,2.37141,2.37141,0,0,0-.6088,1.3471c-.1243.9462.2518,1.7346.8405,1.7612.58882.0266,1.1671-.7189,1.2914-1.6654A1.64762,1.64762,0,0,0,563.63875,167.17307Z" style="fill: #263238"/>
        <path d="M555.94495,166.44027l.009-.0062-2.00958-.6216a2.23837,2.23837,0,0,0,1.11148.9037,2.27142,2.27142,0,0,0-.5957,1.2949c-.1222.9172.2543,1.6816.8411,1.7081.5868.0262,1.162-.6957,1.2845-1.6124A1.49924,1.49924,0,0,0,555.94495,166.44027Z" style="fill: #263238"/>
        <path d="M558.51465,176.24477a20.596,20.596,0,0,1,1.2843,2.7372c.1759-.0367.3517-.0737.52542-.1196,2.37308-.5599,3.30488-1.6021,3.61778-2.5877a3.15417,3.15417,0,0,0,.0739-1.4851,2.9931,2.9931,0,0,0-.247-.8082,11.67432,11.67432,0,0,1-4.448,2.0598C558.82985,176.18077,558.51465,176.24477,558.51465,176.24477Z" style="fill: #263238"/>
        <path d="M559.32105,176.04117l.3999.7969c2.2339-.5327,3.7415-1.207,4.2951-2.0485a2.9931,2.9931,0,0,0-.247-.8082A11.67432,11.67432,0,0,1,559.32105,176.04117Z" style="fill: #fff"/>
        <path d="M560.32437,178.86237c2.37308-.5599,3.30488-1.6021,3.61778-2.5877a7.97906,7.97906,0,0,0-2.5225,1.1428A3.01463,3.01463,0,0,0,560.32437,178.86237Z" style="fill: #ff222a"/>
        <path d="M573.603,180.47c7.6737-6.0466,7.8075-28.9724-6.6638-29.1291-14.4714-.1566-14.8116,16.7618-14.8116,16.7618,1.4021-16.8871,19.29482-11.3509,19.29482-11.3509-.77312,5.3113,1.28978,12.768,1.28978,12.768C575.00265,173.94227,573.60685,180.48927,573.603,180.47Z" style="fill: #263238"/>
        <path d="M573.76465,150.00767c10.4706,3.1197,8.2521,10.1962,8.2521,10.1962s8.71662,10.3075,7.9958,18.2898c-.7209,7.9824-12.0179,11.4651-12.0179,11.4651,11.089-3.9259,10.0413-13.5849-2.859-17.1531-10.6734-2.9494-10.0855-17.7872-10.0855-17.7872S567.89705,148.27877,573.76465,150.00767Z" style="fill: #263238"/>
        <path d="M567.52755,164.162c-4.6191-7.1355-1.1047-10.9348-1.1047-10.9348" style="fill: none;stroke: #263238;stroke-linecap: round;stroke-linejoin: round;stroke-width: 0.25px"/>
        <path d="M577.97985,173.34287a7.40051,7.40051,0,0,1-4.631,3.1046c-2.4159.4396-3.31348-3.4586-2.3044-5.7844a4.86135,4.86135,0,0,1,5.6157-2.7394C578.88915,168.53337,579.36525,171.31867,577.97985,173.34287Z" style="fill: #ffad4e"/>
        <path d="M573.02165,172.53537a3.38817,3.38817,0,0,1,1.2872-2.16,3.33617,3.33617,0,0,1,2.4157-.6481" style="fill: none;stroke: #000;stroke-linecap: round;stroke-linejoin: round;stroke-width: 0.25px;opacity: 0.2"/>
      </g>
      <g>
        <path d="M556.47637,271.03617l20.27828,86.2104,22.75072,75.6742,8.73488-2.6484s-1.68788-32.7885-7.5743-57.9203c-1.3518-5.7925-4.694-12.0168-5.3887-16.7014-.629-4.1025.2065-7.0317-.2628-16.6075.8743-11.5093,2.57392-33.6763,2.57392-45.959,0,0-1.74832-11.6014-9.70732-33.6784Z" style="fill: #407bff"/>
        <path d="M579.13155,365.15287s10.7315,1.8773,12.80582-1.7926-.76392-78.3029-2.45622-84.6265a62.14975,62.14975,0,0,1-1.5435-14.4579,40.41551,40.41551,0,0,1-4.457,0c-.4787-.1629-5.6028,96.8366-5.6028,96.8366Z" style="opacity: 0.30000000000000004"/>
        <g>
          <path d="M597.71245,430.36647l2.8997-.7841a2.13186,2.13186,0,0,1,1.8837.4149c2.2898,1.8316,3.313.6286,4.5513-2.0103,1.1199-.4474,1.7899.7954,1.9808,1.1264l4.2999,7.2994a1.28426,1.28426,0,0,1-.7842,1.9083c-3.5214.9522-5.1874,1.4027-9.57028,2.5878l-13.40432,3.6244c-3.6538.9881-5.4068-2.4895-3.99368-3.2373,6.36378-3.3257,10.61788-6.6133,12.17748-9.148C598.04765,431.69837,597.57945,431.54827,597.71245,430.36647Z" style="fill: #263238"/>
          <path d="M594.11565,434.22237a13.63907,13.63907,0,0,0,2.622-1.0847.1667.1667,0,0,0-.0819-.3029c-.4609-.0887-4.5447-.8029-5.2793.0865a.54955.54955,0,0,0-.0984.5752,1.22546,1.22546,0,0,0,.7481.8135A3.35256,3.35256,0,0,0,594.11565,434.22237Zm1.9951-1.1489c-1.016.4881-2.9321,1.2906-3.9221.8981a.98048.98048,0,0,1-.5466-.5938.21577.21577,0,0,1,.0359-.2434C592.08485,432.64857,594.42645,432.81777,596.11075,433.07347Z" style="fill: #407bff"/>
          <path d="M596.70237,433.15737a.20643.20643,0,0,0,.11348-.0306.16695.16695,0,0,0,.0013-.1832c-.041-.1516-1.8579-3.49-3.7844-2.7252-.4743.1994-.5522.4743-.5176.6783.1329.98,2.8981,2.1521,4.1096,2.3121Zm-3.394-2.7087c1.259-.3406,2.55118,1.5449,3.02228,2.3115-1.3522-.3049-3.4106-1.3432-3.4627-1.9488-.0128-.0473-.04858-.1798.31042-.3175Z" style="fill: #407bff"/>
          <path d="M596.30445,433.14847a3.64066,3.64066,0,0,1,2.8914.9204" style="fill: none;stroke: #407bff;stroke-linecap: round;stroke-linejoin: round;stroke-width: 0.25px"/>
          <path d="M594.869,434.99227a3.64045,3.64045,0,0,1,2.8916.9205" style="fill: none;stroke: #407bff;stroke-linecap: round;stroke-linejoin: round;stroke-width: 0.25px"/>
          <path d="M592.93525,436.73917a3.64126,3.64126,0,0,1,2.8914.9204" style="fill: none;stroke: #407bff;stroke-linecap: round;stroke-linejoin: round;stroke-width: 0.25px"/>
        </g>
      </g>
      <g>
        <path d="M536.53625,354.89967l.77912,82.4365.30328.0265h8.7248s7.2602-35.3631,8.79992-61.1239c.34728-5.9334-1.06092-12.8524-.40382-17.537.5726-4.1119,2.19682-6.6843,4.4969-15.9597,2.7695-11.2656,5.63292-26.3429,4.9288-38.0967,0,0,12.0542-12.5894,8.9655-29.7507l-31.4313-8.3554Z" style="fill: #407bff"/>
        <g>
          <path d="M536.68665,434.56947h3.0038a2.13188,2.13188,0,0,1,1.7101.8922c1.7323,2.3658,3.034,1.4716,4.9183-.7526,1.1978-.1396,1.5202,1.235,1.618,1.6044l2.24552,8.1686a1.28466,1.28466,0,0,1-1.25512,1.6376c-3.6478,0-5.3736-.0001-9.914,0l-13.8856-.0001c-3.785.0001-4.5696-3.8145-3.01028-4.1676,7.01128-1.5493,11.97608-3.6125,14.14318-5.6522C536.66245,435.94267,536.24975,435.67557,536.68665,434.56947Z" style="fill: #263238"/>
          <path d="M532.208,437.35287a13.64192,13.64192,0,0,0,2.8143-.3627.16672.16672,0,0,0-.0001-.3138c-.4217-.2059-4.1775-1.9613-5.1187-1.2945a.54936.54936,0,0,0-.2452.5296,1.22514,1.22514,0,0,0,.5098.9805A3.35262,3.35262,0,0,0,532.208,437.35287Zm2.2259-.5883c-1.1082.206-3.1673.4805-4.0206-.1568a.98045.98045,0,0,1-.3726-.7159.21576.21576,0,0,1,.0981-.2256C530.65845,435.30357,532.87465,436.07817,534.43385,436.76457Z" style="fill: #407bff"/>
          <path d="M534.983,437a.20734.20734,0,0,0,.1176.0001.16693.16693,0,0,0,.0491-.1766c0-.157-.8825-3.8538-2.9419-3.6184-.5099.0686-.6568.3137-.6767.5197-.1275.9806,2.2359,2.8339,3.3636,3.3045Zm-2.5692-3.5007c1.3042-.0002,2.0594,2.1572,2.3142,3.0202-1.2258-.6472-2.9418-2.1868-2.834-2.785,0-.049,0-.1863.3825-.2255Z" style="fill: #407bff"/>
          <path d="M534.60115,436.88757a3.64034,3.64034,0,0,1,2.551,1.6432" style="fill: none;stroke: #407bff;stroke-linecap: round;stroke-linejoin: round;stroke-width: 0.25px"/>
          <path d="M532.73415,438.29267a3.64105,3.64105,0,0,1,2.55122,1.6434" style="fill: none;stroke: #407bff;stroke-linecap: round;stroke-linejoin: round;stroke-width: 0.25px"/>
          <path d="M530.41155,439.47437a3.64066,3.64066,0,0,1,2.5509,1.6431" style="fill: none;stroke: #407bff;stroke-linecap: round;stroke-linejoin: round;stroke-width: 0.25px"/>
        </g>
        <path d="M536.53625,358.90157c.0532.479.0669,3.0764.0669,3.0764l18.05122,2.484-.07752-3.7275Z" style="opacity: 0.30000000000000004"/>
      </g>
      <path d="M590.09645,158.66057a5.31106,5.31106,0,0,0-2.6374-3.5386,3.97284,3.97284,0,0,0-4.2798.3967c-1.3047,1.1128-1.591,3.0031-1.6017,4.7177l1.9171,2.1778a3.09481,3.09481,0,0,0,3.0105,2.0094,3.88358,3.88358,0,0,0,3.1365-1.9964A5.2506,5.2506,0,0,0,590.09645,158.66057Z" style="fill: #263238"/>
      <g>
        <path d="M585.89615,267.20747c.2558-3.8149,4.1588-3.0978,4.1588-3.0978l-5.9388-20.4543h-37.8241l-6.3624,21.2536c-4.7466,20.7693-9.5911,90.8579-5.9109,93.2562,3.6802,2.3984,54.6935,5.0265,56.0362,1.6981C591.39755,356.535,585.64015,271.02237,585.89615,267.20747Z" style="fill: #b97964"/>
        <g style="opacity: 0.30000000000000004">
          <path d="M573.09505,279.618a98.00136,98.00136,0,0,1-27.4343-1.9963s-4.0947,19.0245,12.4339,20.6099C574.62325,299.81687,573.09505,279.618,573.09505,279.618Z"/>
        </g>
        <path d="M546.22626,277.75387a94.14759,94.14759,0,0,0,26.558,1.9206c.47879-.03352.48249-.78377,0-.75a93.41728,93.41728,0,0,1-26.35861-1.89381c-.47054-.10216-.67157.62069-.19938.72321Z" style="fill: #263238"/>
      </g>
      <path d="M557.51375,235.72947l3.0014.7354-.2306,2.6984s17.5029,9.5996,25.0744,8.7724l-2.0229-7.723-25.1852-8.3152-1.67448,1.391Z" style="opacity: 0.30000000000000004"/>
      <g>
        <g>
          <g>
            <path d="M548.74045,212.53667c1.7318,4.5879,10.4105,27.5193,12.7891,33.804a1.17861,1.17861,0,0,1-1.1056,1.595h-23.1093a1.18059,1.18059,0,0,1-1.0852-.7154l-14.1838-33.0789a1.18074,1.18074,0,0,1,1.0503-1.6455l24.5051-.7224A1.18061,1.18061,0,0,1,548.74045,212.53667Z" style="fill: #263238"/>
            <path d="M529.35805,212.13937h0a1.18072,1.18072,0,0,1,1.0231-1.7191l7.629-.1782a1.18051,1.18051,0,0,1,1.1074.7028l.07882.1782a1.18066,1.18066,0,0,1-1.07982,1.6582h-7.7078A1.18077,1.18077,0,0,1,529.35805,212.13937Z" style="fill: #263238"/>
          </g>
          <g>
            <path d="M562.98375,234.79087c-1.4517-.7409-3.1963-.5637-4.415-.6872-1.9583-.1984-3.312-2.0221-4.1709-2.0171-2.3008.0134-6.3079,1.7527-6.772.4854-.4641-1.2674,4.1158-2.6004,4.1158-2.6004s-5.0689.8082-5.4714-.386c-.5573-1.6529.0859-1.6851.0859-1.6851a4.52914,4.52914,0,0,1-.6072-1.3884c-.1765-.6424,3.7645-1.8442,7.9441-1.4036,0,0-1.2824-.4546-3.4125-1.001-.8511-.2184-1.9573.1023-2.8994-.4144-1.3209-.7244,1.4666-2.1532,3.9295-1.6817,2.463.4717,6.4361,2.9884,9.2223,4.8212.3049.2005.66542.4563,1.05442.7408l3.43788,2.2136Z" style="fill: #ffad4e"/>
            <path d="M546.45087,228.30523a15.67407,15.67407,0,0,1,4.07591-.85569,13.00242,13.00242,0,0,1,4.77866.941c.273.09815.39056-.33652.11963-.43392a13.34258,13.34258,0,0,0-4.89829-.95707,16.12026,16.12026,0,0,0-4.19554.87177c-.276.08477-.1583.51928.11963.43392Z" style="fill: #ff7f00"/>
            <path d="M551.58937,230.25317c.642-.02382,1.28887-.072,1.93139-.05509a2.71511,2.71511,0,0,1,1.678.507c.22231.182.54249-.13455.3182-.3182a3.0447,3.0447,0,0,0-1.77889-.62931,21.30218,21.30218,0,0,0-2.14869.04561c-.2887.01071-.2901.46076,0,.45Z" style="fill: #ff7f00"/>
          </g>
        </g>
        <g>
          <g>
            <path d="M588.92305,195.58487l-3.5556,14.8736s.5205,19.2211-.0035,20.1241c-1.4834,2.556-20.3387-3.187-20.3387-3.187l-3.3568,11.0505c5.4542,1.9708,16.046,5.8501,21.7718,6.4628s8.618-.5673,11.83712-5.342c1.85928-2.7582,1.77528-11.0201,1.786-14.3465.01088-3.3264-.10832-6.5311.00018-9.8557C597.45137,203.47567,592.80945,196.68857,588.92305,195.58487Z" style="fill: #407bff"/>
            <g style="opacity: 0.4">
              <path d="M588.92305,195.58487l-3.5556,14.8736s.5205,19.2211-.0035,20.1241c-1.4834,2.556-20.3387-3.187-20.3387-3.187l-3.3568,11.0505c5.4542,1.9708,16.046,5.8501,21.7718,6.4628s8.618-.5673,11.83712-5.342c1.85928-2.7582,1.77528-11.0201,1.786-14.3465.01088-3.3264-.10832-6.5311.00018-9.8557C597.45137,203.47567,592.80945,196.68857,588.92305,195.58487Z" style="fill: #fff"/>
            </g>
          </g>
          <g style="opacity: 0.30000000000000004">
            <path d="M587.49075,197.0465a21.63031,21.63031,0,0,0-1.9779,9.26837.37523.37523,0,0,0,.75,0,20.76512,20.76512,0,0,1,1.8755-8.88983c.19969-.43568-.44652-.81724-.6476-.37854Z"/>
          </g>
          <g style="opacity: 0.30000000000000004">
            <path d="M565.17436,227.89487c3.237.96662,6.50868,1.82464,9.82157,2.49029,1.54462.31035,3.09781.5772,4.65957.78542a12.71432,12.71432,0,0,0,4.15507.24478c2.79432-.60188,2.18044-4.3324,2.15041-6.41339l-.16133-11.1801a.37523.37523,0,0,0-.75,0l.13828,9.583c.02192,1.51858.10156,3.04887.05539,4.567a3.797,3.797,0,0,1-.46405,1.98681,2.38791,2.38791,0,0,1-2.29358.7632c-5.77849-.3167-11.59179-1.90175-17.11195-3.55016a.37532.37532,0,0,0-.19938.72321Z"/>
          </g>
        </g>
      </g>
    </g>
  </g>
</svg>
