<svg xmlns="http://www.w3.org/2000/svg" viewBox="0 0 300 300">
  <rect width="300" height="300" fill="#f0f0f0" />

  <g fill="#888888">
    <path d="M150 180c-22.09 0-40 17.91-40 40s17.91 40 40 40 40-17.91 40-40-17.91-40-40-40z" />
    <path d="M130 120a20 20 0 1 1 40 0 20 20 0 1 1-40 0z" />
    <path d="M115 185c-10 0-15 5-15 15v10h30v-10c0-10-5-15-15-15z" />
    <path d="M185 185c10 0 15 5 15 15v10h-30v-10c0-10-5-15-15-15z" />
  </g>

  <g transform="translate(80, 100)">
    <path fill="#f2f2f2" d="M0 0h20v60H0z" />
    <path fill="#f2f2f2" d="M20 0h20v60H20z" />
    <path fill="#d3d3d3" d="M10 0h10v20H10z" />
    <path fill="#d3d3d3" d="M30 0h10v20H30z" />
    <path fill="#b3b3b3" d="M5 5h5v10H5z" />
    <path fill="#b3b3b3" d="M35 5h5v10H35z" />
  </g>

  <circle fill="#33ccff" cx="50" cy="50" r="2" />
  <circle fill="#33ccff" cx="100" cy="100" r="3" />
  <circle fill="#33ccff" cx="200" cy="150" r="1" />
</svg>
